<svg width="150" height="150" viewBox="0 0 150 150" fill="none" xmlns="http://www.w3.org/2000/svg">
<g clip-path="url(#clip0_94_838)">
<rect width="150" height="150" rx="75" fill="#FDA656"/>
<path d="M133.749 127.671V219.51C133.749 220.964 133.487 222.446 132.95 223.797C132.618 224.624 132.183 225.414 131.655 226.115C131.328 226.56 130.963 226.971 130.561 227.35C129.532 228.331 128.289 229.051 126.961 229.463C125.634 229.874 124.222 229.972 122.861 229.799L30.0454 218.089C28.5775 217.902 27.1282 217.392 25.8193 216.635C24.5056 215.877 23.3322 214.877 22.3458 213.69C21.3594 212.507 20.56 211.142 20.013 209.669C19.4614 208.196 19.1622 206.607 19.1622 205.032L18.7461 124.581C22.5655 121.911 26.5579 119.878 30.7326 118.33C37.2635 115.913 44.2338 114.684 51.6623 114.058C59.3619 113.408 67.5477 113.408 76.243 113.408C85.0506 113.408 93.8909 114.17 102.161 115.684C109.407 117.003 116.214 118.901 122.174 121.369C126.541 123.169 130.449 125.268 133.749 127.671Z" fill="#9090DD"/>
<path d="M44.3579 133.43C45.2171 132.185 46.3536 130.608 47.0652 129.894C38.5708 126.738 33.5079 122.624 33.7323 118.557C33.7556 118.099 33.8491 117.65 34.0034 117.211C40.5343 114.794 47.5046 113.564 54.9331 112.938L56.2654 115.355C56.0083 116.257 55.8914 117.248 55.8914 118.314C55.8914 129.038 67.8873 146.724 68.2051 147.196C57.53 145.912 48.3984 139.42 44.8104 136.545C43.8647 135.787 43.6697 134.427 44.3579 133.43Z" fill="#6060B4"/>
<path d="M122.997 124.417C122.674 129.574 113.858 133.463 101.044 135.38C101.304 135.862 102.372 137.418 103.326 138.786C104.165 139.989 103.649 141.657 102.279 142.178C96.1494 144.513 80.53 149.737 66.3556 148.46C65.8881 148.418 65.4159 148.372 64.9531 148.316C80.0344 138.9 95.6206 122.79 102.161 115.685C109.407 117.003 116.214 118.901 122.174 121.369C122.773 122.36 123.058 123.379 122.997 124.417Z" fill="#6060B4"/>
<path d="M96.5497 121.914C95.9934 129.207 85.5734 134.358 73.2765 133.419C60.9791 132.481 51.4615 125.81 52.0173 118.517C52.5736 111.225 62.9936 106.074 75.2909 107.012C87.5879 107.95 97.106 114.622 96.5497 121.914Z" fill="url(#paint0_linear_94_838)"/>
<path d="M94.8392 124.91C91.3853 130.453 81.1936 133.461 69.7994 131.809C57.135 129.969 47.5238 123.039 47.4476 115.962C46.9329 116.827 46.5884 117.754 46.4247 118.735C45.6216 123.605 49.5331 128.632 56.0607 132.148C57.8484 135.89 61.0876 141.027 66.0613 143.126C66.0613 143.126 76.37 140.252 83.237 135.936C89.5495 134.45 94.0248 131.148 94.756 126.718C94.8537 126.118 94.8817 125.51 94.8392 124.91Z" fill="white" stroke="#871C20" stroke-width="0.747988" stroke-miterlimit="10" stroke-linecap="round" stroke-linejoin="round"/>
<path d="M42.865 133.304C42.865 133.304 45.2866 129.587 46.4601 128.414C38.5875 125.487 33.8892 121.673 34.0996 117.9C34.3333 113.59 40.925 109.934 51.1724 107.999L53.1545 111.594L54.9918 114.927C54.7534 115.768 54.6412 116.685 54.6412 117.676C54.6412 125.343 61.2562 136.848 64.4164 141.91C65.3608 143.416 65.9919 144.351 66.062 144.454C53.2667 142.916 42.865 133.304 42.865 133.304Z" fill="#9090DD" stroke="#871C20" stroke-width="0.747988" stroke-miterlimit="10" stroke-linecap="round" stroke-linejoin="round"/>
<path d="M49.864 128.314L50.6905 127.488L49.5947 127.082" stroke="#871C20" stroke-width="0.747988" stroke-linecap="round" stroke-linejoin="round"/>
<path d="M47.4648 126.292L47.2726 126.221C39.1055 123.183 36.3286 119.91 36.4315 118.031C36.5422 115.998 42.4037 111.732 50.3239 110.799" stroke="#871C20" stroke-width="0.747988" stroke-linecap="round" stroke-linejoin="round" stroke-dasharray="3.63 3.63"/>
<path d="M51.4541 110.689C51.8388 110.66 52.2282 110.64 52.6214 110.627L53.1857 111.651" stroke="#871C20" stroke-width="0.747988" stroke-linecap="round" stroke-linejoin="round"/>
<path d="M54.3643 113.79L54.9912 114.926C54.7527 115.768 54.6405 116.684 54.6405 117.675C54.6405 124.44 59.7905 134.193 63.1732 139.872" stroke="#871C20" stroke-width="0.747988" stroke-linecap="round" stroke-linejoin="round" stroke-dasharray="3.91 3.91"/>
<path d="M63.8021 140.917C64.0176 141.27 64.2228 141.602 64.4154 141.91C64.0405 141.826 63.6623 141.732 63.2827 141.629" stroke="#871C20" stroke-width="0.747988" stroke-linecap="round" stroke-linejoin="round"/>
<path d="M60.7845 140.845C55.8665 139.106 50.9504 136.281 47.9893 134.304" stroke="#871C20" stroke-width="0.747988" stroke-linecap="round" stroke-linejoin="round" stroke-dasharray="4.19 4.19"/>
<path d="M46.913 133.563C46.5479 133.302 46.2342 133.067 45.978 132.864C46.2006 132.544 46.4292 132.22 46.6526 131.91" stroke="#871C20" stroke-width="0.747988" stroke-linecap="round" stroke-linejoin="round"/>
<path d="M47.6235 130.625C47.8124 130.391 47.9793 130.199 48.1144 130.064L49.2948 128.883" stroke="#871C20" stroke-width="0.747988" stroke-linecap="round" stroke-linejoin="round" stroke-dasharray="2.58 2.58"/>
<path d="M119.889 122.294C119.595 127.072 111.418 130.681 99.5393 132.458C99.9974 133.308 103.167 137.764 103.167 137.764C103.167 137.764 84.1775 146.099 67.3758 144.584C66.941 144.547 66.5063 144.5 66.0762 144.454C67.2215 143.738 68.3716 142.981 69.5169 142.191C83.4622 132.579 97.1551 117.993 101.839 112.814C102.933 111.603 103.536 110.906 103.536 110.906C113.644 113.814 120.156 117.886 119.889 122.294Z" fill="#9090DD" stroke="#871C20" stroke-width="0.747988" stroke-miterlimit="10" stroke-linecap="round" stroke-linejoin="round"/>
<path d="M97.0624 130.465L95.9067 130.639L96.4607 131.668" stroke="#871C20" stroke-width="0.747988" stroke-linecap="round" stroke-linejoin="round"/>
<path d="M97.2075 133.056L97.482 133.566C97.6358 133.855 97.9957 134.412 98.4399 135.071" stroke="#871C20" stroke-width="0.747988" stroke-linecap="round" stroke-linejoin="round" stroke-dasharray="2.52 2.52"/>
<path d="M98.8829 135.723C99.0993 136.039 99.3246 136.364 99.5481 136.684C99.2269 136.805 98.8576 136.933 98.4443 137.066" stroke="#871C20" stroke-width="0.747988" stroke-linecap="round" stroke-linejoin="round"/>
<path d="M96.362 137.684C90.5226 139.298 80.2452 141.347 71.7705 142.038" stroke="#871C20" stroke-width="0.747988" stroke-linecap="round" stroke-linejoin="round" stroke-dasharray="3.48 3.48"/>
<path d="M70.6825 142.12C70.2894 142.148 69.9004 142.171 69.5171 142.191C69.8364 141.971 70.1562 141.748 70.475 141.523" stroke="#871C20" stroke-width="0.747988" stroke-linecap="round" stroke-linejoin="round"/>
<path d="M72.4482 140.098C83.9948 131.571 94.9398 120.297 100.228 114.576" stroke="#871C20" stroke-width="0.747988" stroke-linecap="round" stroke-linejoin="round" stroke-dasharray="3.9 3.9"/>
<path d="M101.056 113.677C101.34 113.366 101.602 113.078 101.841 112.814C102.222 112.905 102.599 113.001 102.973 113.103" stroke="#871C20" stroke-width="0.747988" stroke-linecap="round" stroke-linejoin="round"/>
<path d="M105.262 113.8C112.483 116.241 117.671 120.316 117.557 122.154C117.393 124.786 111.652 128.283 99.1938 130.144L98.248 130.286" stroke="#871C20" stroke-width="0.747988" stroke-linecap="round" stroke-linejoin="round" stroke-dasharray="3.83 3.83"/>
<path d="M34.5852 74.6507C34.0434 79.7843 37.5772 85.7695 42.21 86.2562C47.5277 86.8149 51.2013 82.3718 51.4897 77.7469C51.8109 72.5966 48.5875 66.7304 43.9547 66.2415C39.3223 65.7525 35.127 69.5177 34.5852 74.6507Z" fill="#FDE0CB"/>
<path d="M41.9884 86.2287C37.4046 85.6102 34.0433 79.7843 34.5852 74.6507C35.127 69.5172 39.3223 65.7525 43.9551 66.2415C46.531 66.5135 48.538 68.0474 49.7188 70.2381C49.7188 70.2381 50.6903 72.1099 51.0091 73.5147" stroke="#871C20" stroke-width="0.747988" stroke-miterlimit="10" stroke-linecap="round" stroke-linejoin="round"/>
<path d="M39.6489 70.8064C40.4507 70.3754 41.3525 70.1875 42.2865 70.3095C44.6114 70.6143 46.3677 72.107 46.7081 74.7736" stroke="#871C20" stroke-width="0.747988" stroke-miterlimit="10" stroke-linecap="round" stroke-linejoin="round"/>
<path d="M115.752 91.0836C115.541 112.851 95.9688 124.257 73.1565 122.129C51.5448 120.113 35.9801 106.647 37.8604 86.9734C39.6626 68.1176 58.9583 50.2846 79.6523 52.1377C100.828 54.0339 115.97 68.4387 115.752 91.0836Z" fill="url(#paint1_linear_94_838)"/>
<path d="M115.752 91.0836C115.541 112.851 95.9688 124.257 73.1565 122.129C51.5448 120.113 35.9801 106.647 37.8604 86.9734C39.6626 68.1176 58.9583 50.2846 79.6523 52.1377C100.828 54.0339 115.97 68.4387 115.752 91.0836Z" stroke="#871C20" stroke-width="0.747988" stroke-miterlimit="10" stroke-linecap="round" stroke-linejoin="round"/>
<path d="M58.6978 74.7905C57.2584 76.7423 57.0859 79.1606 58.2341 81.2966" stroke="#871C20" stroke-width="7.47988" stroke-miterlimit="10" stroke-linecap="round" stroke-linejoin="round"/>
<path d="M79.1918 76.2515C77.7524 78.2032 77.5803 80.6216 78.728 82.7576" stroke="#871C20" stroke-width="7.47988" stroke-miterlimit="10" stroke-linecap="round" stroke-linejoin="round"/>
<path d="M76.2621 93.7823C74.9316 94.5186 72.6661 95.1749 71.4095 95.1146C64.9123 94.8032 64.3368 91.082 64.3368 91.082C62.5594 93.7313 59.2266 94.498 57.3473 94.0955C55.7378 93.7509 54.4302 93.0389 53.4251 92.3938C52.8267 92.0104 52.6958 91.2017 53.1259 90.6314C55.6877 87.2374 60.2505 85.1196 65.3087 85.4282C70.3951 85.7414 74.6819 88.4154 76.8044 92.1273C77.1456 92.7257 76.8656 93.448 76.2621 93.7823Z" fill="#871C20" stroke="#871C20" stroke-width="0.747988" stroke-miterlimit="10" stroke-linecap="round" stroke-linejoin="round"/>
<path d="M53.0802 95.4147C54.8834 94.4091 56.2816 92.8005 56.9053 90.7631C58.276 86.2864 55.3901 81.4334 50.4595 79.9238" fill="#FCDBC6"/>
<path d="M53.0802 95.4147C54.8834 94.4091 56.2816 92.8005 56.9053 90.7631C58.276 86.2864 55.3901 81.4334 50.4595 79.9238" stroke="#871C20" stroke-width="0.747988" stroke-miterlimit="10" stroke-linecap="round" stroke-linejoin="round"/>
<path d="M67.4844 84.9686L60.2233 87.3659C58.091 88.0433 55.813 86.8639 55.1356 84.7316C54.4582 82.5994 55.6377 80.3213 57.7699 79.6439L65.031 77.2466" fill="#FCDAC5"/>
<path d="M67.4844 84.9686L60.2233 87.3659C58.091 88.0433 55.813 86.8639 55.1356 84.7316C54.4582 82.5994 55.6377 80.3213 57.7699 79.6439L65.031 77.2466" stroke="#871C20" stroke-width="0.747988" stroke-miterlimit="10" stroke-linecap="round" stroke-linejoin="round"/>
<path d="M112.64 93.7321C117.61 93.7321 121.639 90.002 121.639 85.4005C121.639 80.7991 117.61 77.0688 112.64 77.0688C107.671 77.0688 103.642 80.7991 103.642 85.4005C103.642 90.002 107.671 93.7321 112.64 93.7321Z" fill="white" stroke="#871C20" stroke-width="0.747988" stroke-miterlimit="10" stroke-linecap="round" stroke-linejoin="round"/>
<path d="M115.144 70.0684C114.36 62.8681 63.0476 41.844 58.0043 52.3575C58.044 52.2747 55.9043 57.8117 55.9043 57.8117C58.2207 56.1582 65.3355 51.3706 68.9024 52.2986C72.9304 53.3467 77.6062 60.3703 79.6847 60.9649C83.9206 62.165 88.1089 63.5132 92.2401 65.0055L97.6523 74.7971C97.6523 74.7971 105.516 77.8059 111.067 77.1542C111.067 77.1542 112.757 77.1135 113.118 76.2772C113.334 75.6264 114.879 71.0651 115.072 70.491L115.064 70.4901C115.117 70.3568 115.156 70.2119 115.144 70.0684Z" fill="#7272C4" stroke="#871C20" stroke-width="0.747988" stroke-miterlimit="10" stroke-linecap="round" stroke-linejoin="round"/>
<path d="M123.672 61.0866C122.306 49.9579 111.445 41.4897 101.811 35.8696C91.6331 29.9319 78.5382 25.3426 66.3727 27.105C59.1541 28.1508 54.877 33.6499 56.2528 40.8759C56.1869 40.53 57.4436 48.1178 58.0041 52.3575C70.3029 45.1698 104.248 59.9936 114.499 72.1872C122.418 69.7534 124.012 65.6385 123.672 61.0866Z" fill="#FDBF56" stroke="#871C20" stroke-width="0.747988" stroke-miterlimit="10"/>
<path d="M78.1795 39.0705C80.0724 42.3486 79.4071 46.2765 76.6938 47.843C73.9805 49.4096 70.2466 48.0221 68.3537 44.7435C66.4609 41.4655 67.1261 37.5376 69.8394 35.971C72.5527 34.4045 76.2871 35.7925 78.1795 39.0705Z" fill="#9090DD" stroke="#871C20" stroke-width="0.747988" stroke-miterlimit="10" stroke-linecap="round" stroke-linejoin="round"/>
<path d="M72.2235 52.9196C72.7592 54.4208 70.785 56.4974 67.8136 57.5576C64.8422 58.6184 61.9989 58.2612 61.4632 56.7606C60.9274 55.2599 62.9017 53.1833 65.873 52.1226C68.8444 51.0618 71.6877 51.419 72.2235 52.9196Z" fill="#871C20" stroke="#871C20" stroke-width="0.747988" stroke-miterlimit="10" stroke-linecap="round" stroke-linejoin="round"/>
<path d="M74.9744 58.0742C76.3931 56.283 76.5306 54.0289 75.2814 53.0394C74.0322 52.05 71.8694 52.6999 70.4507 54.4911C69.032 56.2823 68.8945 58.5365 70.1437 59.5259C71.3929 60.5153 73.5556 59.8654 74.9744 58.0742Z" fill="#871C20" stroke="#871C20" stroke-width="0.747988" stroke-miterlimit="10" stroke-linecap="round" stroke-linejoin="round"/>
<path d="M122.911 86.1197C122.157 91.4743 116.438 96.5733 110.925 95.7944C104.596 94.9006 101.525 89.3856 102.437 84.6167C103.452 79.3055 108.778 74.2421 114.292 75.0186C119.806 75.7951 123.665 80.765 122.911 86.1197Z" fill="#F9CAB6"/>
<path d="M111.189 95.8271C116.681 96.4587 122.157 91.4739 122.91 86.1192C123.664 80.7645 119.805 75.7946 114.291 75.0181C111.224 74.5866 108.479 75.5908 106.517 77.4879C106.517 77.4879 104.884 79.1194 104.134 80.4565" stroke="#871C20" stroke-width="0.747988" stroke-miterlimit="10" stroke-linecap="round" stroke-linejoin="round"/>
<path d="M120.246 86.8682C120.832 83.2591 118.542 80.0059 115.133 79.602C112.349 79.2724 109.907 80.3037 108.792 82.9146C108.116 84.4985 108.203 86.3184 109.097 87.7906C109.702 88.7873 110.76 90.4483 112.536 90.8536" stroke="#871C20" stroke-width="0.747988" stroke-miterlimit="10" stroke-linecap="round" stroke-linejoin="round"/>
<path d="M110.346 89.5119C110.346 89.5119 109.378 88.583 109.061 88.0889C108.132 86.6387 108.015 84.7608 108.691 83.1769C109.168 82.0577 109.923 81.1606 110.807 80.457C110.807 80.457 113.287 84.4854 110.346 89.5119Z" fill="#871C20" stroke="#871C20" stroke-width="0.747988" stroke-miterlimit="10" stroke-linecap="round" stroke-linejoin="round"/>
<path d="M76.4555 97.338C75.0255 95.6976 74.1597 93.5527 74.1597 91.2059C74.1597 86.0495 78.34 81.8691 83.4964 81.8691C85.3383 81.8691 87.0555 82.4026 88.5023 83.3231" fill="#FAD0BC"/>
<path d="M76.4555 97.338C75.0255 95.6976 74.1597 93.5527 74.1597 91.2059C74.1597 86.0495 78.34 81.8691 83.4964 81.8691C85.3383 81.8691 87.0555 82.4026 88.5023 83.3231" stroke="#871C20" stroke-width="0.747988" stroke-miterlimit="10" stroke-linecap="round" stroke-linejoin="round"/>
<path d="M68.0209 53.1109C59.7272 55.59 56.9755 57.8816 54.4066 59.6193C35.0211 54.8401 33.8664 44.5371 37.223 41.1244C41.8979 36.3718 47.7463 39.497 52.7625 41.9934C58.7506 44.9765 63.6031 48.9689 68.0209 53.1109Z" fill="url(#paint2_linear_94_838)" stroke="#871C20" stroke-width="0.747988" stroke-miterlimit="10"/>
<path d="M89.1372 57.8394C93.9529 62.6602 96.4296 68.869 97.6512 74.7972C93.2717 72.7534 86.1471 70.8086 79.9585 64.5681C71.7194 56.2602 52.8729 35.677 37.2222 41.1242C49.2292 30.0119 82.4801 51.1753 89.1372 57.8394Z" fill="url(#paint3_linear_94_838)"/>
<path d="M37.2222 41.1243C49.34 29.9284 82.4796 51.175 89.1372 57.8391C93.9529 62.6599 96.4296 68.8686 97.6512 74.7969C93.2717 72.753 86.1471 70.8082 79.9585 64.5677C75.1578 59.7263 66.7546 50.7173 57.4814 45.1195" stroke="#871C20" stroke-width="0.747988" stroke-miterlimit="10" stroke-linecap="round" stroke-linejoin="round"/>
<path d="M82.6958 88.7872C81.0474 89.9293 79.0372 89.8825 78.2065 88.6834C77.3757 87.4842 78.0386 85.5862 79.687 84.4441C81.3354 83.3021 83.3456 83.3488 84.1764 84.5479C85.0071 85.7471 84.3442 87.6451 82.6958 88.7872Z" fill="#F6B7A4"/>
<path d="M53.1607 85.6568C52.509 86.4796 51.0565 86.4151 49.9163 85.5119C48.7765 84.6087 48.381 83.21 49.0327 82.3867C49.6844 81.5639 51.1369 81.6285 52.2771 82.5317C53.4169 83.4349 53.8124 84.8341 53.1607 85.6568Z" fill="#F6B7A4"/>
<path d="M55.9966 70.6042C57.4622 67.3228 62.1637 67.4514 63.4475 70.8084" stroke="#871C20" stroke-width="0.747988" stroke-miterlimit="10" stroke-linecap="round" stroke-linejoin="round"/>
<path d="M75.0469 71.5656C76.5125 68.2843 81.214 68.4129 82.4978 71.7694" stroke="#871C20" stroke-width="0.747988" stroke-miterlimit="10" stroke-linecap="round" stroke-linejoin="round"/>
</g>
<defs>
<linearGradient id="paint0_linear_94_838" x1="86.9642" y1="127.616" x2="19.1497" y2="98.9008" gradientUnits="userSpaceOnUse">
<stop stop-color="#F2A290"/>
<stop offset="0.1701" stop-color="#F6B9A6"/>
<stop offset="0.3921" stop-color="#FACFBB"/>
<stop offset="0.6021" stop-color="#FCDDC8"/>
<stop offset="0.7858" stop-color="#FDE2CD"/>
</linearGradient>
<linearGradient id="paint1_linear_94_838" x1="101.57" y1="134.527" x2="45.5818" y2="31.216" gradientUnits="userSpaceOnUse">
<stop stop-color="#F2A290"/>
<stop offset="0.1701" stop-color="#F6B9A6"/>
<stop offset="0.3921" stop-color="#FACFBB"/>
<stop offset="0.6021" stop-color="#FCDDC8"/>
<stop offset="0.7858" stop-color="#FDE2CD"/>
</linearGradient>
<linearGradient id="paint2_linear_94_838" x1="63.9662" y1="59.5723" x2="37.4777" y2="40.935" gradientUnits="userSpaceOnUse">
<stop offset="0.0564" stop-color="#6060B4"/>
<stop offset="0.2223" stop-color="#7777C8"/>
<stop offset="0.3981" stop-color="#8A8AD7"/>
<stop offset="0.5241" stop-color="#9090DD"/>
<stop offset="1" stop-color="#9090DD"/>
</linearGradient>
<linearGradient id="paint3_linear_94_838" x1="98.9916" y1="74.3874" x2="42.2995" y2="34.4988" gradientUnits="userSpaceOnUse">
<stop offset="0.0564" stop-color="#6060B4"/>
<stop offset="0.2283" stop-color="#7777C8"/>
<stop offset="0.4106" stop-color="#8A8AD7"/>
<stop offset="0.5411" stop-color="#9090DD"/>
<stop offset="1" stop-color="#9090DD"/>
</linearGradient>
<clipPath id="clip0_94_838">
<rect width="150" height="150" rx="75" fill="white"/>
</clipPath>
</defs>
</svg>
